<svg width="38" height="38" viewBox="0 0 38 38" fill="none" xmlns="http://www.w3.org/2000/svg">
<path fill-rule="evenodd" clip-rule="evenodd" d="M19 3.1665C10.2555 3.1665 3.16669 10.2553 3.16669 18.9998C3.16669 27.7443 10.2555 34.8332 19 34.8332C27.7446 34.8332 34.8334 27.7443 34.8334 18.9998C34.8334 10.2553 27.7446 3.1665 19 3.1665ZM19 31.6665C12.0156 31.6665 6.33338 25.9842 6.33338 18.9998C6.33338 12.0154 12.0156 6.3332 19 6.3332C25.9845 6.3332 31.6667 12.0154 31.6667 18.9998C31.6667 25.9842 25.9845 31.6665 19 31.6665ZM20.9827 12.6665C20.9827 13.8145 20.1468 14.6457 19.0161 14.6457C17.8397 14.6457 17.0243 13.8144 17.0243 12.6445C17.0243 11.5201 17.8617 10.6874 19.0161 10.6874C20.1468 10.6874 20.9827 11.5201 20.9827 12.6665ZM17.4202 17.4165H20.5868V26.9165H17.4202V17.4165Z" fill="#353B48"/>
</svg>
