<svg width="52" height="55" viewBox="0 0 52 55" fill="none" xmlns="http://www.w3.org/2000/svg">
<path d="M41.1666 13.8884L38.1116 10.8334L26 22.945L13.8883 10.8334L10.8333 13.8884L22.945 26L10.8333 38.1117L13.8883 41.1667L26 29.055L38.1116 41.1667L41.1666 38.1117L29.055 26L41.1666 13.8884Z" fill="#F5F6FA"/>
<path d="M9.19141 51.2871H10.2695C10.2422 51.873 10.123 52.3789 9.91211 52.8047C9.70508 53.2266 9.40234 53.5508 9.00391 53.7773C8.60938 54.0039 8.11523 54.1172 7.52148 54.1172C7.0957 54.1172 6.71094 54.0332 6.36719 53.8652C6.02344 53.6973 5.72852 53.457 5.48242 53.1445C5.24023 52.8281 5.05469 52.4492 4.92578 52.0078C4.79688 51.5664 4.73242 51.0703 4.73242 50.5195V48.9434C4.73242 48.3965 4.79688 47.9023 4.92578 47.4609C5.05859 47.0195 5.24805 46.6426 5.49414 46.3301C5.74414 46.0137 6.04688 45.7715 6.40234 45.6035C6.76172 45.4355 7.16797 45.3516 7.62109 45.3516C8.17578 45.3516 8.64453 45.4629 9.02734 45.6855C9.41406 45.9043 9.71094 46.2266 9.91797 46.6523C10.1289 47.0742 10.2461 47.5918 10.2695 48.2051H9.19141C9.16406 47.7559 9.09375 47.3906 8.98047 47.1094C8.86719 46.8242 8.69922 46.6152 8.47656 46.4824C8.25781 46.3457 7.97266 46.2773 7.62109 46.2773C7.30859 46.2773 7.03711 46.3398 6.80664 46.4648C6.58008 46.5898 6.39258 46.7695 6.24414 47.0039C6.09961 47.2344 5.99023 47.5137 5.91602 47.8418C5.8457 48.166 5.81055 48.5293 5.81055 48.9316V50.5195C5.81055 50.8945 5.83984 51.2441 5.89844 51.5684C5.96094 51.8926 6.05859 52.1777 6.19141 52.4238C6.32812 52.666 6.50586 52.8555 6.72461 52.9922C6.94336 53.1289 7.20898 53.1973 7.52148 53.1973C7.91602 53.1973 8.22852 53.1328 8.45898 53.0039C8.68945 52.875 8.85938 52.6699 8.96875 52.3887C9.08203 52.1074 9.15625 51.7402 9.19141 51.2871ZM18.9062 53.0801V54H15.3672V53.0801H18.9062ZM15.5605 45.4688V54H14.4824V45.4688H15.5605ZM27.5312 53.0801V54H23.8281V53.0801H27.5312ZM24.0215 45.4688V54H22.9434V45.4688H24.0215ZM27.0332 49.1367V50.0566H23.8281V49.1367H27.0332ZM27.4727 45.4688V46.3945H23.8281V45.4688H27.4727ZM34.4277 46.2246L32.0957 54H30.9941L33.7422 45.4688H34.4336L34.4277 46.2246ZM36.3145 54L33.9824 46.2246L33.9707 45.4688H34.668L37.416 54H36.3145ZM36.3145 50.8418V51.7676H32.2012V50.8418H36.3145ZM41.3477 45.4688H43.7324C44.2871 45.4688 44.752 45.5664 45.127 45.7617C45.5059 45.957 45.791 46.2461 45.9824 46.6289C46.1777 47.0078 46.2754 47.4746 46.2754 48.0293C46.2754 48.4199 46.2109 48.7773 46.082 49.1016C45.9531 49.4219 45.7656 49.6953 45.5195 49.9219C45.2734 50.1445 44.9746 50.3105 44.623 50.4199L44.3301 50.543H42.2031L42.1914 49.623H43.7207C44.0488 49.623 44.3223 49.5527 44.541 49.4121C44.7598 49.2676 44.9238 49.0742 45.0332 48.832C45.1426 48.5898 45.1973 48.3223 45.1973 48.0293C45.1973 47.7012 45.1484 47.4141 45.0508 47.168C44.9531 46.9219 44.7969 46.7324 44.582 46.5996C44.3711 46.4629 44.0879 46.3945 43.7324 46.3945H42.4258V54H41.3477V45.4688ZM45.4434 54L43.7441 50.1328L44.8633 50.127L46.5977 53.9297V54H45.4434Z" fill="white"/>
</svg>
