<svg width="39" height="39" viewBox="0 0 39 39" fill="none" xmlns="http://www.w3.org/2000/svg">
<path d="M0 2.59292L2.34667 0L34.8333 36.1783L32.505 38.7917L25.9967 31.5233L22.825 34.7696L20.1667 37.4646L17.5083 34.7696C8.06667 25.235 1.83333 18.9262 1.83333 11.2292C1.83333 9.28958 2.255 7.49292 2.98833 5.92083L0 2.59292ZM11.9167 0C15.1067 0 18.1683 1.65375 20.1667 4.24667C22.165 1.65375 25.2267 0 28.4167 0C34.0633 0 38.5 4.92042 38.5 11.2292C38.5 16.4762 35.6033 21.07 30.7817 26.4804L7.82833 0.91875C9.075 0.326667 10.45 0 11.9167 0Z" fill="#F5F6FA"/>
</svg>
