<svg width="202" height="44" viewBox="0 0 202 44" fill="none" xmlns="http://www.w3.org/2000/svg">
<path d="M2.7489 38.3221C2.18503 38.3221 1.77778 38.2359 1.52717 38.0636C1.29222 37.8913 1.14342 37.6721 1.08077 37.4058C1.01811 37.1238 0.986786 36.8262 0.986786 36.513V23.6613C0.986786 23.3637 1.01811 23.0895 1.08077 22.8389C1.14342 22.5727 1.30005 22.3534 1.55066 22.1811C1.80128 22.0088 2.21635 21.9226 2.79589 21.9226C3.18748 21.9226 3.48508 21.9461 3.6887 21.9931C3.89232 22.0401 4.04112 22.1106 4.1351 22.2046C4.22908 22.2829 4.33089 22.3769 4.44054 22.4865L9.72689 29.629H9.37447L14.6843 22.4865C14.8096 22.3299 14.9349 22.2124 15.0602 22.1341C15.1855 22.0558 15.3422 22.001 15.5301 21.9696C15.7338 21.9383 16.0157 21.9226 16.376 21.9226C16.9398 21.9226 17.3471 22.0088 17.5977 22.1811C17.8483 22.3534 18.0049 22.5805 18.0676 22.8624C18.1302 23.1287 18.1616 23.4106 18.1616 23.7082V36.56C18.1616 36.8576 18.1302 37.1395 18.0676 37.4058C18.0049 37.6721 17.8483 37.8913 17.5977 38.0636C17.3471 38.2359 16.932 38.3221 16.3525 38.3221C15.7886 38.3221 15.3813 38.2359 15.1307 38.0636C14.8801 37.8913 14.7235 37.6642 14.6608 37.3823C14.5982 37.1003 14.5668 36.8106 14.5668 36.513V28.1253L11.0661 33.0827C11.0034 33.161 10.9173 33.2707 10.8077 33.4116C10.698 33.537 10.5414 33.6466 10.3378 33.7406C10.1498 33.8346 9.89136 33.8815 9.56243 33.8815C9.21784 33.8815 8.94373 33.8346 8.74011 33.7406C8.55215 33.6466 8.40335 33.537 8.2937 33.4116C8.18406 33.2863 8.09008 33.1767 8.01176 33.0827L4.53452 28.1488V36.56C4.53452 36.8576 4.50319 37.1395 4.44054 37.4058C4.37788 37.6721 4.22125 37.8913 3.97064 38.0636C3.73569 38.2359 3.32845 38.3221 2.7489 38.3221ZM25.6917 38.51C24.9555 38.51 24.2193 38.3691 23.4832 38.0871C22.7627 37.7895 22.1048 37.3745 21.5096 36.8419C20.9144 36.3093 20.4445 35.675 20.0999 34.9388C19.7553 34.187 19.583 33.3568 19.583 32.4484C19.583 31.6025 19.7396 30.8194 20.0529 30.0989C20.3662 29.3627 20.8047 28.7127 21.3686 28.1488C21.9325 27.5849 22.5747 27.1463 23.2952 26.8331C24.0314 26.5041 24.8145 26.3397 25.6447 26.3397C26.7724 26.3397 27.7906 26.6138 28.699 27.162C29.6232 27.6946 30.3593 28.4229 30.9076 29.347C31.4558 30.2712 31.7299 31.2971 31.7299 32.4249C31.7299 33.3803 31.5497 34.234 31.1895 34.9858C30.8449 35.722 30.375 36.3563 29.7798 36.8889C29.2003 37.4214 28.5502 37.8287 27.8297 38.1106C27.1249 38.3769 26.4122 38.51 25.6917 38.51ZM25.6447 34.9623C26.0206 34.9623 26.4044 34.8683 26.7959 34.6804C27.1875 34.4924 27.5165 34.2105 27.7827 33.8346C28.049 33.4586 28.1821 32.9809 28.1821 32.4014C28.1821 31.9001 28.0725 31.4616 27.8532 31.0856C27.6339 30.7097 27.3285 30.42 26.9369 30.2163C26.561 29.9971 26.1224 29.8874 25.6212 29.8874C25.1513 29.8874 24.7284 29.9971 24.3525 30.2163C23.9922 30.4356 23.6946 30.7411 23.4597 31.1326C23.2404 31.5086 23.1307 31.9393 23.1307 32.4249C23.1307 32.9887 23.256 33.4665 23.5067 33.858C23.7729 34.234 24.1019 34.5159 24.4934 34.7039C24.885 34.8762 25.2688 34.9623 25.6447 34.9623ZM38.1045 38.4161C37.7286 38.4161 37.4075 38.3456 37.1412 38.2046C36.875 38.0636 36.6635 37.8444 36.5069 37.5467L32.2778 29.1121C31.9958 28.5482 31.9097 28.0861 32.0193 27.7259C32.1446 27.35 32.5049 27.0132 33.1001 26.7156C33.6953 26.4337 34.1652 26.3397 34.5098 26.4337C34.8701 26.512 35.1911 26.8722 35.4731 27.5144L38.1045 33.6466L40.7359 27.6084C41.0336 26.9349 41.3546 26.5433 41.6992 26.4337C42.0438 26.324 42.5294 26.4258 43.1559 26.7391C43.7981 27.0367 44.1505 27.3891 44.2132 27.7964C44.2915 28.1879 44.1975 28.6422 43.9313 29.1591L39.7257 37.5467C39.5847 37.8444 39.3811 38.0636 39.1148 38.2046C38.8485 38.3456 38.5118 38.4161 38.1045 38.4161ZM47.6071 38.3221C47.0276 38.3221 46.6125 38.2438 46.3619 38.0871C46.1269 37.9148 45.9781 37.6955 45.9155 37.4293C45.8685 37.1473 45.845 36.8576 45.845 36.56V28.3602C45.845 28.047 45.8685 27.7572 45.9155 27.4909C45.9781 27.2247 46.1348 27.0132 46.3854 26.8566C46.636 26.6843 47.0511 26.5981 47.6306 26.5981C48.1945 26.5981 48.5939 26.6843 48.8288 26.8566C49.0795 27.0289 49.2283 27.2481 49.2752 27.5144C49.3379 27.7807 49.3692 28.0783 49.3692 28.4072V36.5835C49.3692 36.8811 49.3379 37.1708 49.2752 37.4528C49.2283 37.719 49.0795 37.9305 48.8288 38.0871C48.5939 38.2438 48.1867 38.3221 47.6071 38.3221ZM47.6071 24.883C47.0119 24.883 46.589 24.7968 46.3384 24.6245C46.0878 24.4523 45.9311 24.2251 45.8685 23.9432C45.8215 23.6613 45.798 23.3637 45.798 23.0504C45.798 22.7215 45.8293 22.4239 45.892 22.1576C45.9546 21.8756 46.1113 21.6564 46.3619 21.4997C46.6125 21.3274 47.0354 21.2413 47.6306 21.2413C48.2101 21.2413 48.6252 21.3274 48.8758 21.4997C49.1264 21.672 49.2752 21.8991 49.3222 22.1811C49.3849 22.463 49.4162 22.7606 49.4162 23.0739C49.4162 23.3872 49.3849 23.6848 49.3222 23.9667C49.2752 24.2486 49.1264 24.4757 48.8758 24.648C48.6252 24.8047 48.2023 24.883 47.6071 24.883ZM57.2444 38.5335C56.148 38.5335 55.2004 38.3534 54.4015 37.9932C53.6184 37.6329 52.9762 37.163 52.475 36.5835C51.9737 35.9883 51.5978 35.3304 51.3472 34.6099C51.1123 33.8894 50.9948 33.1689 50.9948 32.4484C50.9948 31.2736 51.2611 30.232 51.7936 29.3235C52.3262 28.4151 53.0623 27.7024 54.0021 27.1855C54.9419 26.6529 56.0227 26.3867 57.2444 26.3867C58.1529 26.3867 58.9361 26.5355 59.5939 26.8331C60.2674 27.115 60.8156 27.4909 61.2386 27.9608C61.6771 28.4151 61.9982 28.9085 62.2018 29.441C62.4211 29.9736 62.5308 30.4826 62.5308 30.9682C62.5308 31.8297 62.3193 32.4718 61.8964 32.8948C61.4892 33.302 60.9645 33.5056 60.3223 33.5056H54.7305C54.7618 33.9129 54.9028 34.2575 55.1534 34.5394C55.4197 34.8213 55.7486 35.0406 56.1402 35.1973C56.5317 35.3539 56.9468 35.4322 57.3854 35.4322C57.7613 35.4322 58.0902 35.4165 58.3722 35.3852C58.6541 35.3382 58.8969 35.2834 59.1005 35.2208C59.3041 35.1424 59.4921 35.072 59.6644 35.0093C59.8367 34.931 59.9855 34.8683 60.1108 34.8213C60.2518 34.7743 60.3849 34.743 60.5102 34.7274C60.7452 34.7117 60.9566 34.7822 61.1446 34.9388C61.3482 35.0798 61.5283 35.2991 61.685 35.5967C61.7946 35.769 61.8651 35.9334 61.8964 36.0901C61.9434 36.2467 61.9669 36.4033 61.9669 36.56C61.9669 36.9359 61.7711 37.2726 61.3795 37.5702C61.0036 37.8678 60.4632 38.1028 59.7584 38.2751C59.0692 38.4474 58.2312 38.5335 57.2444 38.5335ZM54.7305 31.579H58.4427C58.6933 31.579 58.8734 31.5399 58.983 31.4616C59.1084 31.3676 59.171 31.1953 59.171 30.9447C59.171 30.6627 59.0849 30.42 58.9126 30.2163C58.7403 29.9971 58.5053 29.8326 58.2077 29.7229C57.9258 29.5976 57.5968 29.535 57.2209 29.535C56.7354 29.535 56.3046 29.629 55.9287 29.8169C55.5528 30.0049 55.2552 30.2555 55.0359 30.5688C54.8323 30.882 54.7305 31.2188 54.7305 31.579ZM66.0341 38.3221C65.4702 38.3221 65.063 38.2438 64.8124 38.0871C64.5617 37.9148 64.4051 37.6877 64.3425 37.4058C64.2955 37.1238 64.272 36.8341 64.272 36.5365V23.6848C64.272 22.9956 64.4051 22.5257 64.6714 22.2751C64.9377 22.0244 65.4154 21.8991 66.1046 21.8991H74.9856C75.2989 21.8991 75.5887 21.9305 75.855 21.9931C76.1212 22.0401 76.3405 22.1889 76.5128 22.4395C76.6851 22.6901 76.7713 23.113 76.7713 23.7082C76.7713 24.2721 76.6851 24.6794 76.5128 24.93C76.3405 25.1806 76.1134 25.3372 75.8315 25.3999C75.5652 25.4469 75.2754 25.4704 74.9622 25.4704H67.8432V28.5012H72.6831C72.9964 28.5012 73.2705 28.5247 73.5055 28.5717C73.7561 28.6187 73.9519 28.7518 74.0928 28.9711C74.2338 29.1904 74.3043 29.5585 74.3043 30.0754C74.3043 30.5609 74.2338 30.9134 74.0928 31.1326C73.9519 31.3519 73.7561 31.4851 73.5055 31.5321C73.2549 31.579 72.9651 31.6025 72.6362 31.6025H67.8432V34.7509H74.9856C75.2989 34.7509 75.5887 34.7822 75.855 34.8448C76.1212 34.9075 76.3405 35.0641 76.5128 35.3147C76.6851 35.5497 76.7713 35.9648 76.7713 36.56C76.7713 37.1238 76.6851 37.5311 76.5128 37.7817C76.3405 38.0323 76.1134 38.1811 75.8315 38.2281C75.5652 38.2908 75.2754 38.3221 74.9622 38.3221H66.0341ZM88.527 27.068C88.8716 27.3969 89.0909 27.6946 89.1848 27.9608C89.2945 28.2114 89.2945 28.4699 89.1848 28.7362C89.0752 28.9868 88.8559 29.2844 88.527 29.629L81.0556 37.7112C80.758 38.0245 80.4839 38.2359 80.2333 38.3456C79.9827 38.4709 79.7242 38.4865 79.4579 38.3926C79.2073 38.2986 78.9176 38.095 78.5886 37.7817C78.2597 37.4528 78.0404 37.163 77.9308 36.9124C77.8368 36.6461 77.8446 36.3877 77.9543 36.1371C78.0796 35.8708 78.291 35.581 78.5886 35.2677L86.06 27.162C86.5456 26.6764 86.9528 26.4258 87.2817 26.4102C87.6263 26.3788 88.0414 26.5981 88.527 27.068ZM78.5886 27.068C78.9176 26.7548 79.2073 26.5511 79.4579 26.4572C79.7242 26.3632 79.9827 26.3788 80.2333 26.5041C80.4839 26.6138 80.758 26.8331 81.0556 27.162L88.527 35.2677C88.8402 35.5967 89.0517 35.8864 89.1613 36.1371C89.2866 36.3877 89.3023 36.6461 89.2083 36.9124C89.1144 37.163 88.8872 37.4528 88.527 37.7817C88.1981 38.095 87.9083 38.2986 87.6577 38.3926C87.4071 38.4865 87.1564 38.4709 86.9058 38.3456C86.6709 38.2359 86.3889 38.0245 86.06 37.7112L78.5886 29.629C78.2754 29.3 78.0639 29.0103 77.9543 28.7597C77.8446 28.4934 77.8368 28.2271 77.9308 27.9608C78.0404 27.6946 78.2597 27.3969 78.5886 27.068ZM96.831 38.1106C96.0635 38.1106 95.3821 37.9618 94.7869 37.6642C94.2074 37.351 93.7218 36.9359 93.3302 36.419C92.9543 35.8864 92.6645 35.2756 92.4609 34.5864C92.2729 33.8972 92.1868 33.1532 92.2025 32.3544C92.2025 31.5869 92.3043 30.8585 92.5079 30.1693C92.7115 29.4645 93.0013 28.8458 93.3772 28.3132C93.7688 27.765 94.2465 27.3421 94.8104 27.0445C95.3899 26.7313 96.0635 26.5746 96.831 26.5746C97.5201 26.5746 98.1858 26.7313 98.828 27.0445C99.4859 27.3578 100.065 27.7885 100.567 28.3367C101.068 28.8693 101.459 29.488 101.741 30.1928C102.039 30.8977 102.188 31.6417 102.188 32.4249C102.188 33.208 102.039 33.952 101.741 34.6569C101.459 35.3461 101.068 35.9491 100.567 36.466C100.065 36.9829 99.4937 37.3901 98.8515 37.6877C98.2093 37.9697 97.5358 38.1106 96.831 38.1106ZM92.2964 43.1855C91.7326 43.1855 91.3253 43.0994 91.0747 42.9271C90.8398 42.7704 90.691 42.559 90.6283 42.2927C90.5813 42.0421 90.5578 41.768 90.5578 41.4704V28.3367C90.5578 28.0235 90.5813 27.7415 90.6283 27.4909C90.6753 27.2247 90.8163 27.0054 91.0512 26.8331C91.3018 26.6608 91.7091 26.5746 92.2729 26.5746C92.7585 26.5746 93.1423 26.6451 93.4242 26.7861C93.7218 26.927 93.9332 27.1463 94.0586 27.4439V41.4469C94.0742 41.7445 94.0507 42.0264 93.9881 42.2927C93.9254 42.559 93.7688 42.7704 93.5182 42.9271C93.2832 43.0994 92.876 43.1855 92.2964 43.1855ZM96.3376 34.7978C96.7761 34.7978 97.1677 34.696 97.5123 34.4924C97.8569 34.2731 98.131 33.9834 98.3346 33.6231C98.5539 33.2628 98.6636 32.8634 98.6636 32.4249C98.6636 31.9706 98.5617 31.5712 98.3581 31.2266C98.1545 30.8664 97.8804 30.5844 97.5358 30.3808C97.1912 30.1772 96.7996 30.0754 96.3611 30.0754C95.9381 30.0754 95.5466 30.185 95.1863 30.4043C94.8417 30.6079 94.5676 30.8899 94.364 31.2501C94.176 31.5947 94.0821 31.9863 94.0821 32.4249C94.0821 32.8634 94.1839 33.2628 94.3875 33.6231C94.5911 33.9834 94.8652 34.2731 95.2098 34.4924C95.5544 34.696 95.9303 34.7978 96.3376 34.7978ZM108.15 38.3221C107.508 38.3221 106.936 38.2829 106.435 38.2046C105.949 38.142 105.526 38.0166 105.166 37.8287C104.821 37.6407 104.539 37.3823 104.32 37.0534C104.101 36.7244 103.936 36.3015 103.827 35.7846C103.733 35.2521 103.686 34.6021 103.686 33.8346V22.9799C103.686 22.6666 103.709 22.3769 103.756 22.1106C103.819 21.8443 103.976 21.625 104.226 21.4527C104.477 21.2804 104.884 21.1943 105.448 21.1943C106.012 21.1943 106.411 21.2804 106.646 21.4527C106.897 21.625 107.053 21.8443 107.116 22.1106C107.179 22.3769 107.21 22.6666 107.21 22.9799V33.6701C107.21 33.9207 107.218 34.1322 107.234 34.3045C107.265 34.4611 107.312 34.5864 107.374 34.6804C107.453 34.7743 107.555 34.837 107.68 34.8683C107.805 34.8997 107.97 34.9153 108.173 34.9153C108.361 34.9153 108.549 34.9388 108.737 34.9858C108.941 35.0328 109.113 35.1738 109.254 35.4087C109.395 35.6437 109.466 36.0352 109.466 36.5835C109.466 37.1473 109.395 37.5546 109.254 37.8052C109.113 38.0558 108.941 38.2046 108.737 38.2516C108.549 38.2986 108.353 38.3221 108.15 38.3221ZM116.344 38.51C115.608 38.51 114.872 38.3691 114.136 38.0871C113.415 37.7895 112.758 37.3745 112.162 36.8419C111.567 36.3093 111.097 35.675 110.753 34.9388C110.408 34.187 110.236 33.3568 110.236 32.4484C110.236 31.6025 110.392 30.8194 110.706 30.0989C111.019 29.3627 111.457 28.7127 112.021 28.1488C112.585 27.5849 113.227 27.1463 113.948 26.8331C114.684 26.5041 115.467 26.3397 116.297 26.3397C117.425 26.3397 118.443 26.6138 119.352 27.162C120.276 27.6946 121.012 28.4229 121.56 29.347C122.108 30.2712 122.383 31.2971 122.383 32.4249C122.383 33.3803 122.202 34.234 121.842 34.9858C121.498 35.722 121.028 36.3563 120.433 36.8889C119.853 37.4214 119.203 37.8287 118.482 38.1106C117.778 38.3769 117.065 38.51 116.344 38.51ZM116.297 34.9623C116.673 34.9623 117.057 34.8683 117.449 34.6804C117.84 34.4924 118.169 34.2105 118.435 33.8346C118.702 33.4586 118.835 32.9809 118.835 32.4014C118.835 31.9001 118.725 31.4616 118.506 31.0856C118.287 30.7097 117.981 30.42 117.59 30.2163C117.214 29.9971 116.775 29.8874 116.274 29.8874C115.804 29.8874 115.381 29.9971 115.005 30.2163C114.645 30.4356 114.347 30.7411 114.112 31.1326C113.893 31.5086 113.783 31.9393 113.783 32.4249C113.783 32.9887 113.909 33.4665 114.159 33.858C114.426 34.234 114.755 34.5159 115.146 34.7039C115.538 34.8762 115.921 34.9623 116.297 34.9623ZM125.592 38.3221C125.012 38.3221 124.597 38.2438 124.347 38.0871C124.112 37.9148 123.963 37.6877 123.9 37.4058C123.853 37.1238 123.83 36.8341 123.83 36.5365V28.3367C123.83 28.0235 123.861 27.7337 123.924 27.4674C123.986 27.2012 124.135 26.9897 124.37 26.8331C124.621 26.6608 125.036 26.5746 125.615 26.5746C126.164 26.5746 126.555 26.6529 126.79 26.8096C127.041 26.9505 127.197 27.1228 127.26 27.3265C127.323 27.5144 127.354 27.6789 127.354 27.8199L127.072 27.9608C127.103 27.8982 127.182 27.7885 127.307 27.6319C127.448 27.4596 127.636 27.2873 127.871 27.115C128.106 26.927 128.388 26.7704 128.717 26.6451C129.061 26.5198 129.453 26.4572 129.891 26.4572C130.064 26.4572 130.252 26.4728 130.455 26.5041C130.675 26.5198 130.894 26.5668 131.113 26.6451C131.348 26.7078 131.56 26.8017 131.748 26.9271C131.935 27.0367 132.084 27.1777 132.194 27.35C132.319 27.5223 132.382 27.7337 132.382 27.9843C132.382 28.6265 132.233 29.1747 131.935 29.629C131.638 30.0675 131.262 30.2868 130.808 30.2868C130.541 30.2868 130.353 30.2633 130.244 30.2163C130.134 30.1693 130.04 30.1224 129.962 30.0754C129.899 30.0284 129.821 29.9892 129.727 29.9579C129.633 29.9109 129.461 29.8874 129.21 29.8874C128.975 29.8874 128.748 29.9187 128.529 29.9814C128.325 30.044 128.129 30.1459 127.941 30.2868C127.769 30.4121 127.628 30.5766 127.518 30.7802C127.424 30.9682 127.377 31.1796 127.377 31.4146V36.5835C127.377 36.8811 127.346 37.1708 127.283 37.4528C127.236 37.719 127.088 37.9305 126.837 38.0871C126.586 38.2438 126.171 38.3221 125.592 38.3221ZM138.88 38.5335C137.784 38.5335 136.836 38.3534 136.037 37.9932C135.254 37.6329 134.612 37.163 134.111 36.5835C133.609 35.9883 133.233 35.3304 132.983 34.6099C132.748 33.8894 132.63 33.1689 132.63 32.4484C132.63 31.2736 132.897 30.232 133.429 29.3235C133.962 28.4151 134.698 27.7024 135.638 27.1855C136.578 26.6529 137.658 26.3867 138.88 26.3867C139.789 26.3867 140.572 26.5355 141.23 26.8331C141.903 27.115 142.451 27.4909 142.874 27.9608C143.313 28.4151 143.634 28.9085 143.837 29.441C144.057 29.9736 144.166 30.4826 144.166 30.9682C144.166 31.8297 143.955 32.4718 143.532 32.8948C143.125 33.302 142.6 33.5056 141.958 33.5056H136.366C136.397 33.9129 136.538 34.2575 136.789 34.5394C137.055 34.8213 137.384 35.0406 137.776 35.1973C138.167 35.3539 138.582 35.4322 139.021 35.4322C139.397 35.4322 139.726 35.4165 140.008 35.3852C140.29 35.3382 140.533 35.2834 140.736 35.2208C140.94 35.1424 141.128 35.072 141.3 35.0093C141.472 34.931 141.621 34.8683 141.746 34.8213C141.887 34.7743 142.021 34.743 142.146 34.7274C142.381 34.7117 142.592 34.7822 142.78 34.9388C142.984 35.0798 143.164 35.2991 143.321 35.5967C143.43 35.769 143.501 35.9334 143.532 36.0901C143.579 36.2467 143.603 36.4033 143.603 36.56C143.603 36.9359 143.407 37.2726 143.015 37.5702C142.639 37.8678 142.099 38.1028 141.394 38.2751C140.705 38.4474 139.867 38.5335 138.88 38.5335ZM136.366 31.579H140.078C140.329 31.579 140.509 31.5399 140.619 31.4616C140.744 31.3676 140.807 31.1953 140.807 30.9447C140.807 30.6627 140.72 30.42 140.548 30.2163C140.376 29.9971 140.141 29.8326 139.843 29.7229C139.561 29.5976 139.232 29.535 138.857 29.535C138.371 29.535 137.94 29.629 137.564 29.8169C137.188 30.0049 136.891 30.2555 136.672 30.5688C136.468 30.882 136.366 31.2188 136.366 31.579ZM147.435 38.3221C146.855 38.3221 146.44 38.2438 146.19 38.0871C145.955 37.9148 145.806 37.6877 145.743 37.4058C145.696 37.1238 145.673 36.8341 145.673 36.5365V28.3367C145.673 28.0235 145.704 27.7337 145.767 27.4674C145.829 27.2012 145.978 26.9897 146.213 26.8331C146.464 26.6608 146.879 26.5746 147.458 26.5746C148.006 26.5746 148.398 26.6529 148.633 26.8096C148.884 26.9505 149.04 27.1228 149.103 27.3265C149.166 27.5144 149.197 27.6789 149.197 27.8199L148.915 27.9608C148.946 27.8982 149.025 27.7885 149.15 27.6319C149.291 27.4596 149.479 27.2873 149.714 27.115C149.949 26.927 150.231 26.7704 150.56 26.6451C150.904 26.5198 151.296 26.4572 151.734 26.4572C151.907 26.4572 152.095 26.4728 152.298 26.5041C152.518 26.5198 152.737 26.5668 152.956 26.6451C153.191 26.7078 153.402 26.8017 153.59 26.9271C153.778 27.0367 153.927 27.1777 154.037 27.35C154.162 27.5223 154.225 27.7337 154.225 27.9843C154.225 28.6265 154.076 29.1747 153.778 29.629C153.481 30.0675 153.105 30.2868 152.651 30.2868C152.384 30.2868 152.196 30.2633 152.087 30.2163C151.977 30.1693 151.883 30.1224 151.805 30.0754C151.742 30.0284 151.664 29.9892 151.57 29.9579C151.476 29.9109 151.304 29.8874 151.053 29.8874C150.818 29.8874 150.591 29.9187 150.372 29.9814C150.168 30.044 149.972 30.1459 149.784 30.2868C149.612 30.4121 149.471 30.5766 149.361 30.7802C149.267 30.9682 149.22 31.1796 149.22 31.4146V36.5835C149.22 36.8811 149.189 37.1708 149.126 37.4528C149.079 37.719 148.931 37.9305 148.68 38.0871C148.429 38.2438 148.014 38.3221 147.435 38.3221Z" fill="white"/>
<path fill-rule="evenodd" clip-rule="evenodd" d="M187.333 10.8924H172.666C167.482 10.8924 164.888 10.8924 163.278 12.4881C161.666 14.082 161.666 16.6508 161.666 21.7847V29.0463C161.666 34.1802 161.666 36.749 163.278 38.3429C164.888 39.9387 167.482 39.9387 172.666 39.9387H187.333V10.8924Z" fill="#2CBDE1"/>
<path d="M198.333 21.7847V29.0463C198.333 34.1802 198.333 36.7472 196.722 38.3429C195.209 39.8406 192.83 39.9332 188.25 39.9386H187.333V10.8924H188.25C192.83 10.8978 195.209 10.9886 196.722 12.4863C198.333 14.0838 198.333 16.649 198.333 21.7847ZM182.596 10.8924L186.543 6.33209C186.767 6.05646 186.873 5.70561 186.84 5.35369C186.807 5.00177 186.637 4.67637 186.366 4.44628C186.095 4.21619 185.744 4.09944 185.388 4.12071C185.032 4.14198 184.698 4.29961 184.457 4.56026L180 9.70872L175.545 4.56026C175.308 4.28582 174.97 4.11596 174.606 4.08805C174.243 4.06013 173.883 4.17644 173.605 4.4114C173.328 4.64636 173.157 4.98072 173.128 5.34091C173.1 5.70111 173.218 6.05765 173.455 6.33209L177.406 10.8924H182.596Z" fill="#8C7AE6"/>
<path d="M192.833 19.9693C193.32 19.9693 193.786 20.1606 194.13 20.501C194.474 20.8415 194.667 21.3032 194.667 21.7847C194.667 22.2662 194.474 22.7279 194.13 23.0684C193.786 23.4088 193.32 23.6001 192.833 23.6001C192.347 23.6001 191.881 23.4088 191.537 23.0684C191.193 22.7279 191 22.2662 191 21.7847C191 21.3032 191.193 20.8415 191.537 20.501C191.881 20.1606 192.347 19.9693 192.833 19.9693ZM192.833 27.2309C193.32 27.2309 193.786 27.4222 194.13 27.7626C194.474 28.1031 194.667 28.5648 194.667 29.0463C194.667 29.5278 194.474 29.9895 194.13 30.33C193.786 30.6704 193.32 30.8617 192.833 30.8617C192.347 30.8617 191.881 30.6704 191.537 30.33C191.193 29.9895 191 29.5278 191 29.0463C191 28.5648 191.193 28.1031 191.537 27.7626C191.881 27.4222 192.347 27.2309 192.833 27.2309Z" fill="#F5F6FA"/>
</svg>
