<svg width="201" height="44" viewBox="0 0 201 44" fill="none" xmlns="http://www.w3.org/2000/svg">
<path d="M2.7489 38.2115C2.18503 38.2115 1.77778 38.1253 1.52717 37.953C1.29222 37.7807 1.14342 37.5614 1.08077 37.2952C1.01811 37.0132 0.986786 36.7156 0.986786 36.4023V23.5506C0.986786 23.253 1.01811 22.9789 1.08077 22.7283C1.14342 22.462 1.30005 22.2427 1.55066 22.0705C1.80128 21.8982 2.21635 21.812 2.79589 21.812C3.18748 21.812 3.48508 21.8355 3.6887 21.8825C3.89232 21.9295 4.04112 22 4.1351 22.0939C4.22908 22.1723 4.33089 22.2662 4.44054 22.3759L9.72689 29.5183H9.37447L14.6843 22.3759C14.8096 22.2193 14.9349 22.1018 15.0602 22.0235C15.1855 21.9451 15.3422 21.8903 15.5301 21.859C15.7338 21.8277 16.0157 21.812 16.376 21.812C16.9398 21.812 17.3471 21.8982 17.5977 22.0705C17.8483 22.2427 18.0049 22.4699 18.0676 22.7518C18.1302 23.0181 18.1616 23.3 18.1616 23.5976V36.4493C18.1616 36.7469 18.1302 37.0289 18.0676 37.2952C18.0049 37.5614 17.8483 37.7807 17.5977 37.953C17.3471 38.1253 16.932 38.2115 16.3525 38.2115C15.7886 38.2115 15.3813 38.1253 15.1307 37.953C14.8801 37.7807 14.7235 37.5536 14.6608 37.2717C14.5982 36.9897 14.5668 36.6999 14.5668 36.4023V28.0147L11.0661 32.9721C11.0034 33.0504 10.9173 33.16 10.8077 33.301C10.698 33.4263 10.5414 33.536 10.3378 33.6299C10.1498 33.7239 9.89136 33.7709 9.56243 33.7709C9.21784 33.7709 8.94373 33.7239 8.74011 33.6299C8.55215 33.536 8.40335 33.4263 8.2937 33.301C8.18406 33.1757 8.09008 33.0661 8.01176 32.9721L4.53452 28.0382V36.4493C4.53452 36.7469 4.50319 37.0289 4.44054 37.2952C4.37788 37.5614 4.22125 37.7807 3.97064 37.953C3.73569 38.1253 3.32845 38.2115 2.7489 38.2115ZM25.6917 38.3994C24.9555 38.3994 24.2193 38.2584 23.4832 37.9765C22.7627 37.6789 22.1048 37.2638 21.5096 36.7313C20.9144 36.1987 20.4445 35.5644 20.0999 34.8282C19.7553 34.0764 19.583 33.2462 19.583 32.3377C19.583 31.4919 19.7396 30.7087 20.0529 29.9882C20.3662 29.2521 20.8047 28.602 21.3686 28.0382C21.9325 27.4743 22.5747 27.0357 23.2952 26.7224C24.0314 26.3935 24.8145 26.2291 25.6447 26.2291C26.7724 26.2291 27.7906 26.5032 28.699 27.0514C29.6232 27.5839 30.3593 28.3123 30.9076 29.2364C31.4558 30.1605 31.7299 31.1865 31.7299 32.3142C31.7299 33.2697 31.5497 34.1233 31.1895 34.8752C30.8449 35.6114 30.375 36.2457 29.7798 36.7783C29.2003 37.3108 28.5502 37.7181 27.8297 38C27.1249 38.2663 26.4122 38.3994 25.6917 38.3994ZM25.6447 34.8517C26.0206 34.8517 26.4044 34.7577 26.7959 34.5697C27.1875 34.3818 27.5165 34.0998 27.7827 33.7239C28.049 33.348 28.1821 32.8703 28.1821 32.2907C28.1821 31.7895 28.0725 31.3509 27.8532 30.975C27.6339 30.5991 27.3285 30.3093 26.9369 30.1057C26.561 29.8864 26.1224 29.7768 25.6212 29.7768C25.1513 29.7768 24.7284 29.8864 24.3525 30.1057C23.9922 30.325 23.6946 30.6304 23.4597 31.022C23.2404 31.3979 23.1307 31.8287 23.1307 32.3142C23.1307 32.8781 23.256 33.3558 23.5067 33.7474C23.7729 34.1233 24.1019 34.4053 24.4934 34.5932C24.885 34.7655 25.2688 34.8517 25.6447 34.8517ZM38.1045 38.3054C37.7286 38.3054 37.4075 38.2349 37.1412 38.094C36.875 37.953 36.6635 37.7337 36.5069 37.4361L32.2778 29.0015C31.9958 28.4376 31.9097 27.9755 32.0193 27.6153C32.1446 27.2393 32.5049 26.9026 33.1001 26.605C33.6953 26.323 34.1652 26.2291 34.5098 26.323C34.8701 26.4013 35.1911 26.7616 35.4731 27.4038L38.1045 33.536L40.7359 27.4978C41.0336 26.8243 41.3546 26.4327 41.6992 26.323C42.0438 26.2134 42.5294 26.3152 43.1559 26.6285C43.7981 26.9261 44.1505 27.2785 44.2132 27.6857C44.2915 28.0773 44.1975 28.5316 43.9313 29.0484L39.7257 37.4361C39.5847 37.7337 39.3811 37.953 39.1148 38.094C38.8485 38.2349 38.5118 38.3054 38.1045 38.3054ZM47.6071 38.2115C47.0276 38.2115 46.6125 38.1331 46.3619 37.9765C46.1269 37.8042 45.9781 37.5849 45.9155 37.3186C45.8685 37.0367 45.845 36.7469 45.845 36.4493V28.2496C45.845 27.9363 45.8685 27.6466 45.9155 27.3803C45.9781 27.114 46.1348 26.9026 46.3854 26.7459C46.636 26.5736 47.0511 26.4875 47.6306 26.4875C48.1945 26.4875 48.5939 26.5736 48.8288 26.7459C49.0795 26.9182 49.2283 27.1375 49.2752 27.4038C49.3379 27.6701 49.3692 27.9677 49.3692 28.2966V36.4728C49.3692 36.7704 49.3379 37.0602 49.2752 37.3421C49.2283 37.6084 49.0795 37.8199 48.8288 37.9765C48.5939 38.1331 48.1867 38.2115 47.6071 38.2115ZM47.6071 24.7724C47.0119 24.7724 46.589 24.6862 46.3384 24.5139C46.0878 24.3416 45.9311 24.1145 45.8685 23.8326C45.8215 23.5506 45.798 23.253 45.798 22.9398C45.798 22.6108 45.8293 22.3132 45.892 22.047C45.9546 21.765 46.1113 21.5457 46.3619 21.3891C46.6125 21.2168 47.0354 21.1307 47.6306 21.1307C48.2101 21.1307 48.6252 21.2168 48.8758 21.3891C49.1264 21.5614 49.2752 21.7885 49.3222 22.0705C49.3849 22.3524 49.4162 22.65 49.4162 22.9633C49.4162 23.2765 49.3849 23.5741 49.3222 23.8561C49.2752 24.138 49.1264 24.3651 48.8758 24.5374C48.6252 24.6941 48.2023 24.7724 47.6071 24.7724ZM57.2444 38.4229C56.148 38.4229 55.2004 38.2428 54.4015 37.8825C53.6184 37.5223 52.9762 37.0524 52.475 36.4728C51.9737 35.8776 51.5978 35.2198 51.3472 34.4993C51.1123 33.7787 50.9948 33.0582 50.9948 32.3377C50.9948 31.163 51.2611 30.1214 51.7936 29.2129C52.3262 28.3044 53.0623 27.5918 54.0021 27.0749C54.9419 26.5423 56.0227 26.276 57.2444 26.276C58.1529 26.276 58.9361 26.4248 59.5939 26.7224C60.2674 27.0044 60.8156 27.3803 61.2386 27.8502C61.6771 28.3044 61.9982 28.7978 62.2018 29.3304C62.4211 29.8629 62.5308 30.372 62.5308 30.8575C62.5308 31.719 62.3193 32.3612 61.8964 32.7841C61.4892 33.1914 60.9645 33.395 60.3223 33.395H54.7305C54.7618 33.8022 54.9028 34.1468 55.1534 34.4288C55.4197 34.7107 55.7486 34.93 56.1402 35.0866C56.5317 35.2433 56.9468 35.3216 57.3854 35.3216C57.7613 35.3216 58.0902 35.3059 58.3722 35.2746C58.6541 35.2276 58.8969 35.1728 59.1005 35.1101C59.3041 35.0318 59.4921 34.9613 59.6644 34.8987C59.8367 34.8204 59.9855 34.7577 60.1108 34.7107C60.2518 34.6637 60.3849 34.6324 60.5102 34.6167C60.7452 34.6011 60.9566 34.6716 61.1446 34.8282C61.3482 34.9692 61.5283 35.1884 61.685 35.486C61.7946 35.6583 61.8651 35.8228 61.8964 35.9794C61.9434 36.1361 61.9669 36.2927 61.9669 36.4493C61.9669 36.8253 61.7711 37.162 61.3795 37.4596C61.0036 37.7572 60.4632 37.9922 59.7584 38.1645C59.0692 38.3368 58.2312 38.4229 57.2444 38.4229ZM54.7305 31.4684H58.4427C58.6933 31.4684 58.8734 31.4293 58.983 31.3509C59.1084 31.257 59.171 31.0847 59.171 30.8341C59.171 30.5521 59.0849 30.3093 58.9126 30.1057C58.7403 29.8864 58.5053 29.722 58.2077 29.6123C57.9258 29.487 57.5968 29.4244 57.2209 29.4244C56.7354 29.4244 56.3046 29.5183 55.9287 29.7063C55.5528 29.8943 55.2552 30.1449 55.0359 30.4581C54.8323 30.7714 54.7305 31.1082 54.7305 31.4684ZM66.0341 38.2115C65.4702 38.2115 65.063 38.1331 64.8124 37.9765C64.5617 37.8042 64.4051 37.5771 64.3425 37.2952C64.2955 37.0132 64.272 36.7234 64.272 36.4258V23.5741C64.272 22.8849 64.4051 22.415 64.6714 22.1644C64.9377 21.9138 65.4154 21.7885 66.1046 21.7885H74.9856C75.2989 21.7885 75.5887 21.8198 75.855 21.8825C76.1212 21.9295 76.3405 22.0783 76.5128 22.3289C76.6851 22.5795 76.7713 23.0024 76.7713 23.5976C76.7713 24.1615 76.6851 24.5687 76.5128 24.8194C76.3405 25.07 76.1134 25.2266 75.8315 25.2893C75.5652 25.3362 75.2754 25.3597 74.9622 25.3597H67.8432V28.3906H72.6831C72.9964 28.3906 73.2705 28.4141 73.5055 28.4611C73.7561 28.5081 73.9519 28.6412 74.0928 28.8605C74.2338 29.0798 74.3043 29.4479 74.3043 29.9647C74.3043 30.4503 74.2338 30.8027 74.0928 31.022C73.9519 31.2413 73.7561 31.3744 73.5055 31.4214C73.2549 31.4684 72.9651 31.4919 72.6362 31.4919H67.8432V34.6402H74.9856C75.2989 34.6402 75.5887 34.6716 75.855 34.7342C76.1212 34.7969 76.3405 34.9535 76.5128 35.2041C76.6851 35.4391 76.7713 35.8541 76.7713 36.4493C76.7713 37.0132 76.6851 37.4205 76.5128 37.6711C76.3405 37.9217 76.1134 38.0705 75.8315 38.1175C75.5652 38.1801 75.2754 38.2115 74.9622 38.2115H66.0341ZM88.527 26.9574C88.8716 27.2863 89.0909 27.5839 89.1848 27.8502C89.2945 28.1008 89.2945 28.3593 89.1848 28.6255C89.0752 28.8761 88.8559 29.1737 88.527 29.5183L81.0556 37.6006C80.758 37.9139 80.4839 38.1253 80.2333 38.2349C79.9827 38.3603 79.7242 38.3759 79.4579 38.2819C79.2073 38.188 78.9176 37.9843 78.5886 37.6711C78.2597 37.3421 78.0404 37.0524 77.9308 36.8018C77.8368 36.5355 77.8446 36.277 77.9543 36.0264C78.0796 35.7602 78.291 35.4704 78.5886 35.1571L86.06 27.0514C86.5456 26.5658 86.9528 26.3152 87.2817 26.2995C87.6263 26.2682 88.0414 26.4875 88.527 26.9574ZM78.5886 26.9574C78.9176 26.6441 79.2073 26.4405 79.4579 26.3465C79.7242 26.2525 79.9827 26.2682 80.2333 26.3935C80.4839 26.5032 80.758 26.7224 81.0556 27.0514L88.527 35.1571C88.8402 35.486 89.0517 35.7758 89.1613 36.0264C89.2866 36.277 89.3023 36.5355 89.2083 36.8018C89.1144 37.0524 88.8872 37.3421 88.527 37.6711C88.1981 37.9843 87.9083 38.188 87.6577 38.2819C87.4071 38.3759 87.1564 38.3603 86.9058 38.2349C86.6709 38.1253 86.3889 37.9139 86.06 37.6006L78.5886 29.5183C78.2754 29.1894 78.0639 28.8996 77.9543 28.649C77.8446 28.3828 77.8368 28.1165 77.9308 27.8502C78.0404 27.5839 78.2597 27.2863 78.5886 26.9574ZM96.831 38C96.0635 38 95.3821 37.8512 94.7869 37.5536C94.2074 37.2403 93.7218 36.8253 93.3302 36.3084C92.9543 35.7758 92.6645 35.1649 92.4609 34.4758C92.2729 33.7866 92.1868 33.0426 92.2025 32.2437C92.2025 31.4762 92.3043 30.7479 92.5079 30.0587C92.7115 29.3539 93.0013 28.7352 93.3772 28.2026C93.7688 27.6544 94.2465 27.2315 94.8104 26.9339C95.3899 26.6206 96.0635 26.464 96.831 26.464C97.5201 26.464 98.1858 26.6206 98.828 26.9339C99.4859 27.2472 100.065 27.6779 100.567 28.2261C101.068 28.7587 101.459 29.3774 101.741 30.0822C102.039 30.7871 102.188 31.5311 102.188 32.3142C102.188 33.0974 102.039 33.8414 101.741 34.5462C101.459 35.2354 101.068 35.8385 100.567 36.3554C100.065 36.8722 99.4937 37.2795 98.8515 37.5771C98.2093 37.859 97.5358 38 96.831 38ZM92.2964 43.0749C91.7326 43.0749 91.3253 42.9888 91.0747 42.8165C90.8398 42.6598 90.691 42.4484 90.6283 42.1821C90.5813 41.9315 90.5578 41.6574 90.5578 41.3598V28.2261C90.5578 27.9129 90.5813 27.6309 90.6283 27.3803C90.6753 27.114 90.8163 26.8947 91.0512 26.7224C91.3018 26.5501 91.7091 26.464 92.2729 26.464C92.7585 26.464 93.1423 26.5345 93.4242 26.6755C93.7218 26.8164 93.9332 27.0357 94.0586 27.3333V41.3363C94.0742 41.6339 94.0507 41.9158 93.9881 42.1821C93.9254 42.4484 93.7688 42.6598 93.5182 42.8165C93.2832 42.9888 92.876 43.0749 92.2964 43.0749ZM96.3376 34.6872C96.7761 34.6872 97.1677 34.5854 97.5123 34.3818C97.8569 34.1625 98.131 33.8727 98.3346 33.5125C98.5539 33.1522 98.6636 32.7528 98.6636 32.3142C98.6636 31.86 98.5617 31.4606 98.3581 31.116C98.1545 30.7557 97.8804 30.4738 97.5358 30.2702C97.1912 30.0666 96.7996 29.9647 96.3611 29.9647C95.9381 29.9647 95.5466 30.0744 95.1863 30.2937C94.8417 30.4973 94.5676 30.7792 94.364 31.1395C94.176 31.4841 94.0821 31.8757 94.0821 32.3142C94.0821 32.7528 94.1839 33.1522 94.3875 33.5125C94.5911 33.8727 94.8652 34.1625 95.2098 34.3818C95.5544 34.5854 95.9303 34.6872 96.3376 34.6872ZM108.15 38.2115C107.508 38.2115 106.936 38.1723 106.435 38.094C105.949 38.0313 105.526 37.906 105.166 37.7181C104.821 37.5301 104.539 37.2717 104.32 36.9427C104.101 36.6138 103.936 36.1909 103.827 35.674C103.733 35.1415 103.686 34.4914 103.686 33.7239V22.8693C103.686 22.556 103.709 22.2662 103.756 22C103.819 21.7337 103.976 21.5144 104.226 21.3421C104.477 21.1698 104.884 21.0837 105.448 21.0837C106.012 21.0837 106.411 21.1698 106.646 21.3421C106.897 21.5144 107.053 21.7337 107.116 22C107.179 22.2662 107.21 22.556 107.21 22.8693V33.5595C107.21 33.8101 107.218 34.0215 107.234 34.1938C107.265 34.3505 107.312 34.4758 107.374 34.5697C107.453 34.6637 107.555 34.7264 107.68 34.7577C107.805 34.789 107.97 34.8047 108.173 34.8047C108.361 34.8047 108.549 34.8282 108.737 34.8752C108.941 34.9222 109.113 35.0631 109.254 35.2981C109.395 35.533 109.466 35.9246 109.466 36.4728C109.466 37.0367 109.395 37.444 109.254 37.6946C109.113 37.9452 108.941 38.094 108.737 38.141C108.549 38.188 108.353 38.2115 108.15 38.2115ZM116.344 38.3994C115.608 38.3994 114.872 38.2584 114.136 37.9765C113.415 37.6789 112.758 37.2638 112.162 36.7313C111.567 36.1987 111.097 35.5644 110.753 34.8282C110.408 34.0764 110.236 33.2462 110.236 32.3377C110.236 31.4919 110.392 30.7087 110.706 29.9882C111.019 29.2521 111.457 28.602 112.021 28.0382C112.585 27.4743 113.227 27.0357 113.948 26.7224C114.684 26.3935 115.467 26.2291 116.297 26.2291C117.425 26.2291 118.443 26.5032 119.352 27.0514C120.276 27.5839 121.012 28.3123 121.56 29.2364C122.108 30.1605 122.383 31.1865 122.383 32.3142C122.383 33.2697 122.202 34.1233 121.842 34.8752C121.498 35.6114 121.028 36.2457 120.433 36.7783C119.853 37.3108 119.203 37.7181 118.482 38C117.778 38.2663 117.065 38.3994 116.344 38.3994ZM116.297 34.8517C116.673 34.8517 117.057 34.7577 117.449 34.5697C117.84 34.3818 118.169 34.0998 118.435 33.7239C118.702 33.348 118.835 32.8703 118.835 32.2907C118.835 31.7895 118.725 31.3509 118.506 30.975C118.287 30.5991 117.981 30.3093 117.59 30.1057C117.214 29.8864 116.775 29.7768 116.274 29.7768C115.804 29.7768 115.381 29.8864 115.005 30.1057C114.645 30.325 114.347 30.6304 114.112 31.022C113.893 31.3979 113.783 31.8287 113.783 32.3142C113.783 32.8781 113.909 33.3558 114.159 33.7474C114.426 34.1233 114.755 34.4053 115.146 34.5932C115.538 34.7655 115.921 34.8517 116.297 34.8517ZM125.592 38.2115C125.012 38.2115 124.597 38.1331 124.347 37.9765C124.112 37.8042 123.963 37.5771 123.9 37.2952C123.853 37.0132 123.83 36.7234 123.83 36.4258V28.2261C123.83 27.9129 123.861 27.6231 123.924 27.3568C123.986 27.0905 124.135 26.8791 124.37 26.7224C124.621 26.5501 125.036 26.464 125.615 26.464C126.164 26.464 126.555 26.5423 126.79 26.6989C127.041 26.8399 127.197 27.0122 127.26 27.2158C127.323 27.4038 127.354 27.5683 127.354 27.7092L127.072 27.8502C127.103 27.7875 127.182 27.6779 127.307 27.5213C127.448 27.349 127.636 27.1767 127.871 27.0044C128.106 26.8164 128.388 26.6598 128.717 26.5345C129.061 26.4092 129.453 26.3465 129.891 26.3465C130.064 26.3465 130.252 26.3622 130.455 26.3935C130.675 26.4092 130.894 26.4562 131.113 26.5345C131.348 26.5971 131.56 26.6911 131.748 26.8164C131.935 26.9261 132.084 27.067 132.194 27.2393C132.319 27.4116 132.382 27.6231 132.382 27.8737C132.382 28.5159 132.233 29.0641 131.935 29.5183C131.638 29.9569 131.262 30.1762 130.808 30.1762C130.541 30.1762 130.353 30.1527 130.244 30.1057C130.134 30.0587 130.04 30.0117 129.962 29.9647C129.899 29.9178 129.821 29.8786 129.727 29.8473C129.633 29.8003 129.461 29.7768 129.21 29.7768C128.975 29.7768 128.748 29.8081 128.529 29.8708C128.325 29.9334 128.129 30.0352 127.941 30.1762C127.769 30.3015 127.628 30.466 127.518 30.6696C127.424 30.8575 127.377 31.069 127.377 31.304V36.4728C127.377 36.7704 127.346 37.0602 127.283 37.3421C127.236 37.6084 127.088 37.8199 126.837 37.9765C126.586 38.1331 126.171 38.2115 125.592 38.2115ZM138.88 38.4229C137.784 38.4229 136.836 38.2428 136.037 37.8825C135.254 37.5223 134.612 37.0524 134.111 36.4728C133.609 35.8776 133.233 35.2198 132.983 34.4993C132.748 33.7787 132.63 33.0582 132.63 32.3377C132.63 31.163 132.897 30.1214 133.429 29.2129C133.962 28.3044 134.698 27.5918 135.638 27.0749C136.578 26.5423 137.658 26.276 138.88 26.276C139.789 26.276 140.572 26.4248 141.23 26.7224C141.903 27.0044 142.451 27.3803 142.874 27.8502C143.313 28.3044 143.634 28.7978 143.837 29.3304C144.057 29.8629 144.166 30.372 144.166 30.8575C144.166 31.719 143.955 32.3612 143.532 32.7841C143.125 33.1914 142.6 33.395 141.958 33.395H136.366C136.397 33.8022 136.538 34.1468 136.789 34.4288C137.055 34.7107 137.384 34.93 137.776 35.0866C138.167 35.2433 138.582 35.3216 139.021 35.3216C139.397 35.3216 139.726 35.3059 140.008 35.2746C140.29 35.2276 140.533 35.1728 140.736 35.1101C140.94 35.0318 141.128 34.9613 141.3 34.8987C141.472 34.8204 141.621 34.7577 141.746 34.7107C141.887 34.6637 142.021 34.6324 142.146 34.6167C142.381 34.6011 142.592 34.6716 142.78 34.8282C142.984 34.9692 143.164 35.1884 143.321 35.486C143.43 35.6583 143.501 35.8228 143.532 35.9794C143.579 36.1361 143.603 36.2927 143.603 36.4493C143.603 36.8253 143.407 37.162 143.015 37.4596C142.639 37.7572 142.099 37.9922 141.394 38.1645C140.705 38.3368 139.867 38.4229 138.88 38.4229ZM136.366 31.4684H140.078C140.329 31.4684 140.509 31.4293 140.619 31.3509C140.744 31.257 140.807 31.0847 140.807 30.8341C140.807 30.5521 140.72 30.3093 140.548 30.1057C140.376 29.8864 140.141 29.722 139.843 29.6123C139.561 29.487 139.232 29.4244 138.857 29.4244C138.371 29.4244 137.94 29.5183 137.564 29.7063C137.188 29.8943 136.891 30.1449 136.672 30.4581C136.468 30.7714 136.366 31.1082 136.366 31.4684ZM147.435 38.2115C146.855 38.2115 146.44 38.1331 146.19 37.9765C145.955 37.8042 145.806 37.5771 145.743 37.2952C145.696 37.0132 145.673 36.7234 145.673 36.4258V28.2261C145.673 27.9129 145.704 27.6231 145.767 27.3568C145.829 27.0905 145.978 26.8791 146.213 26.7224C146.464 26.5501 146.879 26.464 147.458 26.464C148.006 26.464 148.398 26.5423 148.633 26.6989C148.884 26.8399 149.04 27.0122 149.103 27.2158C149.166 27.4038 149.197 27.5683 149.197 27.7092L148.915 27.8502C148.946 27.7875 149.025 27.6779 149.15 27.5213C149.291 27.349 149.479 27.1767 149.714 27.0044C149.949 26.8164 150.231 26.6598 150.56 26.5345C150.904 26.4092 151.296 26.3465 151.734 26.3465C151.907 26.3465 152.095 26.3622 152.298 26.3935C152.518 26.4092 152.737 26.4562 152.956 26.5345C153.191 26.5971 153.402 26.6911 153.59 26.8164C153.778 26.9261 153.927 27.067 154.037 27.2393C154.162 27.4116 154.225 27.6231 154.225 27.8737C154.225 28.5159 154.076 29.0641 153.778 29.5183C153.481 29.9569 153.105 30.1762 152.651 30.1762C152.384 30.1762 152.196 30.1527 152.087 30.1057C151.977 30.0587 151.883 30.0117 151.805 29.9647C151.742 29.9178 151.664 29.8786 151.57 29.8473C151.476 29.8003 151.304 29.7768 151.053 29.7768C150.818 29.7768 150.591 29.8081 150.372 29.8708C150.168 29.9334 149.972 30.0352 149.784 30.1762C149.612 30.3015 149.471 30.466 149.361 30.6696C149.267 30.8575 149.22 31.069 149.22 31.304V36.4728C149.22 36.7704 149.189 37.0602 149.126 37.3421C149.079 37.6084 148.931 37.8199 148.68 37.9765C148.429 38.1331 148.014 38.2115 147.435 38.2115Z" fill="white"/>
<path fill-rule="evenodd" clip-rule="evenodd" d="M185.965 10.8126H171.548C166.452 10.8126 163.902 10.8126 162.32 12.3967C160.736 13.9789 160.736 16.5289 160.736 21.6252V28.8336C160.736 33.93 160.736 36.48 162.32 38.0622C163.902 39.6462 166.452 39.6462 171.548 39.6462H185.965V10.8126Z" fill="#FBC531"/>
<path opacity="0.5" d="M196.778 21.6252V28.8336C196.778 33.93 196.778 36.4781 195.194 38.0622C193.707 39.5489 191.368 39.6408 186.866 39.6462H185.965V10.8126H186.866C191.368 10.818 193.707 10.9081 195.194 12.3949C196.778 13.9807 196.778 16.5271 196.778 21.6252ZM181.309 10.8126L185.189 6.28573C185.408 6.01212 185.513 5.66384 185.48 5.31449C185.448 4.96515 185.281 4.64214 185.014 4.41373C184.748 4.18532 184.403 4.06943 184.053 4.09054C183.703 4.11166 183.375 4.26813 183.138 4.52688L178.757 9.63764L174.378 4.52688C174.145 4.25445 173.813 4.08583 173.455 4.05812C173.097 4.0304 172.744 4.14587 172.471 4.3791C172.199 4.61234 172.03 4.94425 172.002 5.30181C171.975 5.65937 172.09 6.0133 172.323 6.28573L176.207 10.8126H181.309Z" fill="#8C7AE6"/>
<path d="M191.372 19.8231C191.85 19.8231 192.308 20.013 192.646 20.3509C192.984 20.6889 193.174 21.1473 193.174 21.6252C193.174 22.1032 192.984 22.5615 192.646 22.8995C192.308 23.2375 191.85 23.4273 191.372 23.4273C190.894 23.4273 190.435 23.2375 190.097 22.8995C189.759 22.5615 189.569 22.1032 189.569 21.6252C189.569 21.1473 189.759 20.6889 190.097 20.3509C190.435 20.013 190.894 19.8231 191.372 19.8231ZM191.372 27.0315C191.85 27.0315 192.308 27.2214 192.646 27.5594C192.984 27.8973 193.174 28.3557 193.174 28.8336C193.174 29.3116 192.984 29.77 192.646 30.1079C192.308 30.4459 191.85 30.6357 191.372 30.6357C190.894 30.6357 190.435 30.4459 190.097 30.1079C189.759 29.77 189.569 29.3116 189.569 28.8336C189.569 28.3557 189.759 27.8973 190.097 27.5594C190.435 27.2214 190.894 27.0315 191.372 27.0315Z" fill="#F5F6FA"/>
</svg>
