<svg width="171" height="220" viewBox="0 0 171 220" fill="none" xmlns="http://www.w3.org/2000/svg">
<path d="M146.571 0H24.4286C17.9497 0 11.7362 2.57372 7.15496 7.15496C2.57372 11.7362 0 17.9497 0 24.4286V195.429C0 201.907 2.57372 208.121 7.15496 212.702C11.7362 217.283 17.9497 219.857 24.4286 219.857H146.571C153.05 219.857 159.264 217.283 163.845 212.702C168.426 208.121 171 201.907 171 195.429V24.4286C171 17.9497 168.426 11.7362 163.845 7.15496C159.264 2.57372 153.05 0 146.571 0ZM97.7143 183.214H73.2857V158.786H97.7143V183.214ZM130.693 90.3857C129.691 93.3247 128.466 96.183 127.029 98.9357C125.359 101.662 123.302 104.13 120.921 106.264L114.814 112.371C112.68 114.752 110.212 116.809 107.486 118.479C105.043 120.921 103.821 123.364 101.379 125.807C99.4311 128.744 98.178 132.085 97.7143 135.579C96.7043 139.567 96.2927 143.683 96.4929 147.793H74.5072C74.3223 142.876 74.7325 137.954 75.7286 133.136C75.9716 129.367 76.7956 125.659 78.1714 122.143C79.3267 119.047 80.9767 116.16 83.0571 113.593L90.3857 106.264C92.1131 104.284 94.1815 102.629 96.4929 101.379C98.9357 100.157 100.157 97.7143 101.379 96.4929L105.043 89.1643C106.045 86.4314 106.461 83.5184 106.264 80.6143C106.021 76.846 105.197 73.138 103.821 69.6214C100.998 64.7716 96.7266 60.9275 91.6071 58.6286C89.7317 57.6412 87.6109 57.217 85.5 57.4071C81.9678 57.1293 78.4239 57.7707 75.2132 59.2691C72.0025 60.7674 69.2345 63.0715 67.1786 65.9571C62.9959 72.0575 60.8575 79.328 61.0714 86.7214H39.0857C39.1184 79.6421 40.3575 72.6201 42.75 65.9571C44.7992 60.0098 48.1357 54.5881 52.5214 50.0786C56.698 45.8661 61.6838 42.5423 67.1786 40.3071C73.8415 37.9147 80.8635 36.6755 87.9429 36.6429C93.7192 36.7802 99.4591 37.6002 105.043 39.0857C110.175 40.7483 114.799 43.6908 118.479 47.6357C122.412 51.5807 125.709 56.1135 128.25 61.0714C130.639 66.886 131.883 73.1069 131.914 79.3929C132.066 83.0978 131.654 86.8043 130.693 90.3857Z" fill="#2F3640"/>
</svg>
