<svg width="74" height="74" viewBox="0 0 74 74" fill="none" xmlns="http://www.w3.org/2000/svg">
<rect width="74" height="74" rx="8" fill="#2CBDE1"/>
<path d="M15.3333 37C15.3333 42.1717 17.3878 47.1316 21.0447 50.7886C24.7017 54.4455 29.6616 56.5 34.8333 56.5C40.0116 56.5 44.9733 54.4633 48.7 50.8667L45.45 47.6167C44.0859 49.0612 42.4398 50.2104 40.6137 50.9931C38.7875 51.7757 36.8201 52.1751 34.8333 52.1667C21.3133 52.1667 14.5533 35.83 24.1083 26.275C33.6633 16.72 50 23.5017 50 37H43.5L52.1666 45.6667H52.3833L60.8333 37H54.3333C54.3333 31.8283 52.2789 26.8684 48.6219 23.2114C44.9649 19.5545 40.005 17.5 34.8333 17.5C29.6616 17.5 24.7017 19.5545 21.0447 23.2114C17.3878 26.8684 15.3333 31.8283 15.3333 37Z" fill="#E9E9E9"/>
</svg>
