<svg width="32" height="32" viewBox="0 0 32 32" fill="none" xmlns="http://www.w3.org/2000/svg">
<path d="M5.97988 18.9363C5.1869 18.9363 4.42639 18.6213 3.86567 18.0606C3.30494 17.4999 2.98993 16.7394 2.98993 15.9464C2.98993 15.1534 3.30494 14.3929 3.86567 13.8322C4.42639 13.2714 5.1869 12.9564 5.97988 12.9564C6.77287 12.9564 7.53338 13.2714 8.0941 13.8322C8.65483 14.3929 8.96984 15.1534 8.96984 15.9464C8.96984 16.7394 8.65483 17.4999 8.0941 18.0606C7.53338 18.6213 6.77287 18.9363 5.97988 18.9363ZM15.9464 18.9363C15.1534 18.9363 14.3929 18.6213 13.8322 18.0606C13.2715 17.4999 12.9564 16.7394 12.9564 15.9464C12.9564 15.1534 13.2715 14.3929 13.8322 13.8322C14.3929 13.2714 15.1534 12.9564 15.9464 12.9564C16.7394 12.9564 17.4999 13.2714 18.0606 13.8322C18.6213 14.3929 18.9364 15.1534 18.9364 15.9464C18.9364 16.7394 18.6213 17.4999 18.0606 18.0606C17.4999 18.6213 16.7394 18.9363 15.9464 18.9363ZM25.9129 18.9363C25.1199 18.9363 24.3594 18.6213 23.7987 18.0606C23.238 17.4999 22.923 16.7394 22.923 15.9464C22.923 15.1534 23.238 14.3929 23.7987 13.8322C24.3594 13.2714 25.1199 12.9564 25.9129 12.9564C26.7059 12.9564 27.4664 13.2714 28.0271 13.8322C28.5879 14.3929 28.9029 15.1534 28.9029 15.9464C28.9029 16.7394 28.5879 17.4999 28.0271 18.0606C27.4664 18.6213 26.7059 18.9363 25.9129 18.9363Z" fill="#F5F6FA"/>
</svg>
