<svg width="34" height="34" viewBox="0 0 34 34" fill="none" xmlns="http://www.w3.org/2000/svg">
<path d="M17.7897 16.401V27.3318C17.8452 27.7479 17.7065 28.1918 17.3875 28.4831C17.2591 28.6117 17.1067 28.7137 16.9389 28.7833C16.7711 28.8529 16.5912 28.8888 16.4095 28.8888C16.2279 28.8888 16.048 28.8529 15.8802 28.7833C15.7124 28.7137 15.5599 28.6117 15.4316 28.4831L12.6434 25.6949C12.4922 25.547 12.3772 25.3661 12.3075 25.1664C12.2377 24.9666 12.215 24.7535 12.2411 24.5436V16.401H12.1995L4.20953 6.16381C3.98426 5.87463 3.88262 5.50805 3.92681 5.14416C3.97099 4.78027 4.15742 4.44866 4.44534 4.2218C4.7089 4.0276 5.0002 3.91663 5.30538 3.91663H24.7255C25.0307 3.91663 25.322 4.0276 25.5855 4.2218C25.8735 4.44866 26.0599 4.78027 26.1041 5.14416C26.1483 5.50805 26.0466 5.87463 25.8214 6.16381L17.8314 16.401H17.7897Z" fill="#F5F6FA"/>
</svg>
