<svg width="52" height="52" viewBox="0 0 52 52" fill="none" xmlns="http://www.w3.org/2000/svg">
<path fill-rule="evenodd" clip-rule="evenodd" d="M44.525 13.6176C45.5325 14.5081 45.6268 16.0486 44.7363 17.0626L26.0487 38.1876C25.8329 38.4316 25.5704 38.6299 25.2766 38.7707C24.9829 38.9115 24.6639 38.9921 24.3385 39.0075C24.0131 39.023 23.6879 38.973 23.3821 38.8607C23.0764 38.7483 22.7962 38.5758 22.5582 38.3533L10.3707 26.9783C9.90189 26.5365 9.62703 25.927 9.60625 25.2831C9.58547 24.6391 9.82045 24.0132 10.2598 23.542C10.6992 23.0709 11.3073 22.7928 11.9511 22.7686C12.5949 22.7445 13.222 22.9762 13.6955 23.4131L24.063 33.0656L41.093 13.8256C41.3053 13.5854 41.563 13.3894 41.8511 13.2489C42.1393 13.1085 42.4523 13.0262 42.7723 13.0069C43.0924 12.9876 43.413 13.0315 43.716 13.1363C44.019 13.2411 44.2983 13.4047 44.538 13.6176H44.525Z" fill="#F5F6FA"/>
</svg>
