<svg version="1.2" xmlns="http://www.w3.org/2000/svg" viewBox="0 0 456 456" width="456" height="456">
	<style>
		tspan { white-space:pre } 
		.s0 { opacity: .4;fill: #2cbde1 } 
		.s1 { opacity: .5;fill: #8c7ae6 } 
		.s2 { fill: #f5f6fa } 
		.t3 { font-size: 24px;fill: #ffffff;font-weight: 400;font-family: "Roboto-Bold", "Roboto" } 
	</style>
	<path fill-rule="evenodd" class="s0" d="m275.36 138.86h-94.49c-33.4 0-50.12 0-60.49 10.28-10.38 10.27-10.38 26.82-10.38 59.9v46.78c0 33.07 0 49.62 10.38 59.89 10.37 10.28 27.09 10.28 60.49 10.28h94.49z"/>
	<path class="s1" d="m346.23 209.04v46.78c0 33.07 0 49.61-10.39 59.89-9.74 9.65-25.07 10.25-54.57 10.28h-5.91v-187.13h5.91c29.5 0.04 44.83 0.62 54.57 10.27 10.39 10.29 10.39 26.82 10.39 59.91zm-101.39-70.18l25.43-29.38c1.44-1.77 2.12-4.03 1.91-6.3-0.21-2.27-1.31-4.36-3.05-5.85-1.75-1.48-4.01-2.23-6.3-2.09-2.3 0.13-4.45 1.15-6 2.83l-28.72 33.17-28.7-33.17c-1.53-1.77-3.7-2.86-6.04-3.04-2.35-0.18-4.67 0.57-6.45 2.08-1.79 1.51-2.89 3.67-3.08 5.99-0.18 2.32 0.58 4.62 2.11 6.38l25.45 29.38z"/>
	<path class="s2" d="m310.79 197.34c3.13 0 6.14 1.23 8.35 3.43 2.22 2.19 3.46 5.17 3.46 8.27 0 3.1-1.24 6.07-3.46 8.27-2.21 2.19-5.22 3.42-8.35 3.42-3.13 0-6.13-1.23-8.35-3.42-2.21-2.2-3.46-5.17-3.46-8.27 0-3.1 1.25-6.08 3.46-8.27 2.22-2.2 5.22-3.43 8.35-3.43zm0 46.78c3.13 0 6.14 1.24 8.35 3.43 2.22 2.19 3.46 5.17 3.46 8.27 0 3.1-1.24 6.08-3.46 8.27-2.21 2.19-5.22 3.42-8.35 3.42-3.13 0-6.13-1.23-8.35-3.42-2.21-2.19-3.46-5.17-3.46-8.27 0-3.1 1.25-6.08 3.46-8.27 2.22-2.19 5.22-3.43 8.35-3.43z"/>
	<text id="Movie Explorer" style="transform: matrix(1.148,0,0,1.148,135.728,355.601)" >
		<tspan x="0" y="0" class="t3">M</tspan><tspan  y="0" class="t3">o</tspan><tspan  y="0" class="t3">v</tspan><tspan  y="0" class="t3">i</tspan><tspan  y="0" class="t3">e</tspan><tspan  y="0" class="t3"> </tspan><tspan  y="0" class="t3">E</tspan><tspan  y="0" class="t3">x</tspan><tspan  y="0" class="t3">p</tspan><tspan  y="0" class="t3">l</tspan><tspan  y="0" class="t3">o</tspan><tspan  y="0" class="t3">r</tspan><tspan  y="0" class="t3">e</tspan><tspan  y="0" class="t3">r</tspan><tspan  y="0" class="t3">
</tspan>
	</text>
</svg>