<svg version="1.2" xmlns="http://www.w3.org/2000/svg" viewBox="0 0 456 456" width="456" height="456">
	<style>
		.s0 { opacity: .4;fill: #2cbde1 } 
		.s1 { opacity: .5;fill: #8c7ae6 } 
		.s2 { fill: #f5f6fa } 
	</style>
	<path fill-rule="evenodd" class="s0" d="m259.74 135.1h-62.71c-22.16 0-33.26 0-40.14 6.83-6.89 6.81-6.89 17.79-6.89 39.75v31.04c0 21.95 0 32.93 6.89 39.74 6.88 6.83 17.98 6.83 40.14 6.83h62.71z"/>
	<path class="s1" d="m306.77 181.68v31.04c0 21.95 0 32.92-6.9 39.74-6.46 6.41-16.64 6.81-36.21 6.83h-3.92v-124.19h3.92c19.57 0.03 29.75 0.41 36.21 6.82 6.9 6.83 6.9 17.8 6.9 39.76zm-67.29-46.58l16.88-19.49c0.95-1.18 1.4-2.68 1.26-4.18-0.13-1.51-0.86-2.9-2.02-3.89-1.16-0.98-2.66-1.48-4.18-1.38-1.53 0.08-2.95 0.76-3.98 1.87l-19.06 22.02-19.05-22.02c-1.01-1.17-2.45-1.89-4-2.01-1.56-0.12-3.1 0.38-4.28 1.38-1.19 1-1.92 2.43-2.05 3.97-0.12 1.54 0.39 3.07 1.4 4.24l16.89 19.49z"/>
	<path class="s2" d="m283.25 173.91c2.07 0 4.07 0.82 5.54 2.28 1.47 1.45 2.29 3.43 2.29 5.49 0 2.05-0.82 4.02-2.29 5.48-1.47 1.46-3.47 2.27-5.54 2.27-2.08 0-4.07-0.81-5.54-2.27-1.47-1.46-2.3-3.43-2.3-5.48 0-2.06 0.83-4.04 2.3-5.49 1.47-1.46 3.46-2.28 5.54-2.28zm0 31.05c2.07 0 4.07 0.82 5.54 2.27 1.47 1.45 2.29 3.43 2.29 5.49 0 2.06-0.82 4.03-2.29 5.49-1.47 1.45-3.47 2.27-5.54 2.27-2.08 0-4.07-0.82-5.54-2.27-1.47-1.46-2.3-3.43-2.3-5.49 0-2.06 0.83-4.04 2.3-5.49 1.47-1.45 3.46-2.27 5.54-2.27z"/>
	<g id="Movie Explorer">
	</g>
</svg>